# xmcd
# 
# Track frame offsets:
#     150
#     12628
#     25329
#     36310
#     48145
#     59912
#     70731
#     83097
#     97654
#     112656
#     121753
#     134690
#     147609
#     158963
#     172875
#     186157
#     200410
#     211297
#     224192
#     236679
#     248412
#     261902
#     274469
#     286941
#     298190
# 
# Disc length: 4156
# 
# Revision: 1
# Processed by: cddbd v1.5.2PL0 Copyright (c) Steve Scherf et al.
# Submitted via: fre:ac v1.0.31
# 
DISCID=83103a19
DTITLE=Country - The Greatest Country Hits Of 1950 Disc 4
DYEAR=0
DGENRE=Country
TTITLE0=Mona Lisa
TTITLE1=Cincinnati Dancing Pig
TTITLE2=The Lovebug Itch
TTITLE3=Why Should We Try Anymore
TTITLE4=I'll Never Be Free
TTITLE5=You Don't Have To Be A Baby To Cry
TTITLE6=They'll Never Take Her Love Away From Me
TTITLE7=Our Lady Of Fatima
TTITLE8=Daddy's Last Letter
TTITLE9=A Bushel And A Peck
TTITLE10=Faded Love
TTITLE11=A Prison Without Walls
TTITLE12=Nobody's Lonesome For Me
TTITLE13=If You've Got The Money, I've Got The Time
TTITLE14=(Remember Me) I'm The One Who Loves You
TTITLE15=Rudolph The Red-Nosed Reindeer
TTITLE16=Moanin' The Blues
TTITLE17=Frosty The Snowman
TTITLE18=Blue Christmas
TTITLE19=Shotgun Boogie
TTITLE20=Mockingbird Hill
TTITLE21=Golden Rocket
TTITLE22=I Love You A Thousand Ways
TTITLE23=Hot Rod Race
TTITLE24=Tennessee Waltz
EXTD=
EXTT0=
EXTT1=
EXTT2=
EXTT3=
EXTT4=
EXTT5=
EXTT6=
EXTT7=
EXTT8=
EXTT9=
EXTT10=
EXTT11=
EXTT12=
EXTT13=
EXTT14=
EXTT15=
EXTT16=
EXTT17=
EXTT18=
EXTT19=
EXTT20=
EXTT21=
EXTT22=
EXTT23=
EXTT24=
PLAYORDER=
